<svg version="1.1" id="Layer_1" xmlns="http://www.w3.org/2000/svg" xmlns:xlink="http://www.w3.org/1999/xlink" x="0px" y="0px" width="100%" viewBox="0 0 736 736" enable-background="new 0 0 736 736" xml:space="preserve">
<path fill="#000000" opacity="1.000000" stroke="none" d="
M480.132233,196.268860 
	C478.071930,200.942307 477.446838,206.017227 477.550873,210.927811 
	C477.906525,227.712891 474.315247,243.995697 471.954590,260.438293 
	C470.911255,267.705200 472.640076,274.967987 471.532318,282.309814 
	C470.383972,289.920715 470.810028,297.730011 463.618622,303.093567 
	C457.340820,307.775696 451.463989,312.860352 443.180145,313.822083 
	C437.428741,314.489807 431.907013,316.608063 426.027771,316.770721 
	C418.142853,316.988892 412.003815,322.705261 404.371002,323.828766 
	C402.437866,324.113312 400.558777,324.765259 397.719666,325.485657 
	C401.026459,326.759918 403.629639,326.607574 406.147095,326.617554 
	C411.687012,326.639496 417.069092,327.579895 422.393707,328.990906 
	C431.007355,331.273560 439.573242,333.474976 448.622772,333.725800 
	C461.686401,334.087860 468.643463,342.909668 473.370361,353.686890 
	C476.376099,360.539917 477.672272,367.968781 478.359619,375.477570 
	C478.964142,382.081787 479.493713,388.693695 481.796875,395.054260 
	C485.972778,406.586548 486.204803,418.800476 487.416473,431.786652 
	C489.464081,424.599548 488.249603,417.823944 490.633301,411.743988 
	C495.117798,400.305786 491.563110,388.429688 492.882324,376.829071 
	C493.514740,371.268219 493.378784,365.662964 495.541931,360.286133 
	C496.872620,356.978485 497.603638,353.433990 498.191010,349.804352 
	C498.955139,345.082550 501.874146,341.045044 506.265533,338.290161 
	C516.852295,331.648712 528.145630,328.042297 540.805603,328.729980 
	C554.157715,329.455231 566.659058,325.651306 579.261780,320.888580 
	C556.420532,319.293762 534.367737,314.891357 512.092102,312.271088 
	C504.278931,311.352051 498.256287,307.130188 495.363464,298.613739 
	C493.060730,291.834412 492.954163,284.916382 491.481262,278.173981 
	C489.927429,271.061279 487.916992,264.022797 487.330627,256.766998 
	C486.746124,249.533905 486.779053,242.245300 487.476685,234.990051 
	C487.615295,233.548462 488.260681,232.192673 487.408051,230.636856 
	C486.671143,229.292175 486.517944,227.535599 488.677856,227.143219 
	C490.477753,226.816223 491.475952,228.019089 491.845734,229.635986 
	C493.327881,236.116730 495.047974,242.561600 496.132477,249.110428 
	C497.785645,259.093170 498.594696,269.226471 500.512695,279.150787 
	C501.806000,285.842773 506.229156,291.442963 509.015625,297.643707 
	C509.667358,299.093994 512.236938,299.875275 514.073669,300.567993 
	C523.891296,304.270752 534.091858,306.688843 544.258606,309.174103 
	C546.458313,309.711853 548.918274,309.613373 551.197144,309.324646 
	C560.641113,308.127991 569.794434,308.649231 578.516968,312.931824 
	C579.809937,313.566650 581.438232,313.482666 582.873535,313.870972 
	C586.315979,314.802246 589.989868,315.835693 590.198975,320.181000 
	C590.414001,324.651459 589.486755,328.421997 584.328003,330.470123 
	C577.231140,333.287628 569.898987,334.897827 562.466248,334.925568 
	C552.536072,334.962585 543.555298,338.204987 534.387207,341.159882 
	C524.236572,344.431366 524.184998,344.362427 526.488159,354.812073 
	C529.593628,368.901886 530.315247,383.075867 528.583862,397.425018 
	C527.212036,408.793945 529.289368,419.948059 531.389526,431.068451 
	C532.843689,438.768250 533.964294,446.495483 532.731262,454.349945 
	C532.139648,458.118195 530.968567,461.805542 531.298767,465.698608 
	C531.413879,467.055817 531.254211,468.664093 530.148438,469.391449 
	C527.071594,471.415283 527.206238,474.428955 527.371033,477.406494 
	C527.571411,481.026978 526.009033,483.457001 522.914673,485.085022 
	C521.885315,485.626556 520.926575,486.407959 519.833618,486.706573 
	C509.677887,489.481293 499.361298,491.585480 488.870850,489.374359 
	C480.713470,487.654999 472.769928,487.671753 464.754578,489.749695 
	C454.597015,492.382965 444.101898,492.660675 433.771942,494.090912 
	C430.793945,494.503235 427.844421,494.346100 425.380341,492.078796 
	C423.523499,490.370239 421.926575,492.202820 420.421661,492.897522 
	C414.520630,495.621552 408.505768,498.025513 402.386475,500.217987 
	C392.189514,503.871429 381.980133,500.793396 371.760376,500.716370 
	C360.897247,500.634491 350.726166,498.488800 341.024445,493.707977 
	C339.278656,492.847687 337.449738,493.917664 335.652588,494.113617 
	C314.611542,496.408203 293.549866,497.616394 272.398712,495.512543 
	C263.216583,494.599182 254.111069,495.646362 245.090012,497.440430 
	C235.235931,499.400177 225.417938,499.868469 215.355240,498.531952 
	C204.610809,497.104919 193.725266,498.611267 182.901596,498.390594 
	C176.111816,498.252197 171.454147,494.562408 170.020370,488.170197 
	C169.839935,487.365784 169.453796,486.302734 169.792114,485.733246 
	C173.773163,479.031799 170.320312,472.375519 169.462204,465.844116 
	C168.651688,459.675110 168.754288,453.558167 168.717041,447.419464 
	C168.527008,416.105042 166.587234,384.883179 163.988281,353.692413 
	C163.891571,352.531830 163.901962,351.361877 163.874802,350.195984 
	C163.694397,342.450439 163.695496,342.450409 155.540237,342.344727 
	C155.331818,342.027496 155.007523,341.669922 154.834137,341.250031 
	C151.450500,333.055756 151.451874,333.047485 160.168274,330.172333 
	C161.964645,329.579834 163.354172,328.950684 163.685059,326.604980 
	C165.015930,317.170349 167.597031,314.636932 177.166550,312.717529 
	C177.795746,312.591370 178.414764,312.414490 178.979507,312.275696 
	C180.070847,309.910400 178.749939,307.852448 178.537567,305.794678 
	C178.047455,301.045715 180.525009,298.073547 184.385315,297.122040 
	C195.404831,294.405823 206.659683,294.184845 217.907837,295.740265 
	C221.076370,296.178436 222.005783,298.955444 222.725571,301.490875 
	C223.586700,304.524200 223.579849,307.690887 222.707352,311.428131 
	C225.589218,310.925110 227.958099,310.511627 230.197952,310.120667 
	C231.335892,307.592224 230.417923,305.605621 229.615204,303.621216 
	C227.203506,297.659119 230.284744,294.003784 236.407196,294.108673 
	C244.286163,294.243652 252.313110,294.529358 260.190857,296.184509 
	C265.223358,297.241882 267.721924,299.721466 268.205811,304.712585 
	C268.351318,306.213013 267.845581,308.199921 270.108643,309.047974 
	C272.946533,308.489563 272.539581,305.459015 273.877747,303.740540 
	C280.105469,295.743011 287.929443,289.596985 296.638062,284.662292 
	C299.232574,283.192108 302.852509,282.369537 305.742371,282.842010 
	C310.672668,283.648041 315.598724,283.150909 320.520813,283.658508 
	C328.274841,284.458221 336.161011,283.332916 343.804260,281.339905 
	C347.248016,280.441956 350.933807,280.224396 354.186890,281.024170 
	C359.854767,282.417725 365.724518,281.760254 371.326904,283.448578 
	C374.585297,284.430542 377.928375,283.130096 381.232971,282.854309 
	C406.806427,280.720062 432.306519,277.187927 458.072601,278.696472 
	C462.333557,278.945923 462.812714,275.781219 463.630890,272.947083 
	C466.662079,262.447021 466.819763,251.662277 466.754791,240.847061 
	C466.684692,229.176819 468.270111,217.633606 469.906647,206.119202 
	C470.294006,203.393799 471.724091,200.772507 472.920166,198.218307 
	C474.158508,195.573837 476.361450,194.759399 479.572571,195.891418 
	C479.984985,196.055618 480.132233,196.268860 480.132233,196.268860 
M395.642487,304.587769 
	C397.340942,305.211395 399.418854,305.551605 399.000549,308.103333 
	C398.607086,310.503754 396.778809,310.324921 394.842773,310.567383 
	C386.941376,311.556763 379.011871,312.513641 371.211731,314.076508 
	C358.485962,316.626312 347.282715,323.234955 335.773804,328.751129 
	C325.529175,333.661407 317.073944,341.526245 310.283539,350.636993 
	C299.448822,365.173981 294.815308,382.307281 292.716644,399.915894 
	C291.789703,407.693573 290.987549,415.990753 295.907318,423.621582 
	C299.745575,429.574921 302.564331,436.292877 305.086121,442.954956 
	C307.244385,448.656616 310.987640,452.945374 315.208282,456.909637 
	C325.217712,466.311005 337.081207,473.212189 348.511353,480.628448 
	C353.311981,483.743195 357.896332,487.757019 363.890961,488.647827 
	C375.681152,490.399933 387.323486,490.512177 398.916199,486.729401 
	C417.056274,480.810211 434.753754,474.464203 448.099426,459.671509 
	C451.448181,455.959625 456.453857,453.689484 460.845428,450.997162 
	C462.648682,449.891632 465.102173,448.938171 466.871246,450.738281 
	C468.614624,452.512268 466.991760,454.507416 466.037079,456.194458 
	C463.557068,460.576996 460.265015,464.293396 456.615143,467.765350 
	C451.220245,472.897278 445.131317,477.189087 438.330139,482.687408 
	C445.842255,482.687408 452.123779,482.227264 458.311340,482.793640 
	C467.959106,483.676727 476.917511,482.038971 485.316803,477.311707 
	C486.983887,476.373444 488.698090,476.058502 490.548615,475.905457 
	C498.112671,475.279816 505.677246,474.645813 513.228699,473.886597 
	C520.195312,473.186218 522.301941,470.215881 520.901611,463.414459 
	C520.733948,462.599854 520.572021,461.772827 520.529846,460.945312 
	C519.649353,443.671326 518.226318,426.414490 518.785889,409.093201 
	C518.921021,404.911621 518.378540,400.836884 517.628662,396.717438 
	C515.810791,386.731415 514.643127,376.687256 515.284363,366.466064 
	C515.663391,360.424469 515.353638,354.339691 515.353638,348.265259 
	C509.149536,348.585449 505.441071,352.606567 504.289551,359.717712 
	C502.137787,373.006256 500.435608,386.370331 497.538788,399.535187 
	C497.000610,401.980835 497.170990,404.474060 497.803131,406.952148 
	C500.824799,418.797272 498.119598,430.092773 493.896515,441.051941 
	C492.840790,443.791626 490.175110,446.140472 487.768768,448.069489 
	C485.027557,450.266998 479.978699,447.600861 478.353577,443.562408 
	C472.798309,429.757690 473.251892,415.001862 473.122192,400.708527 
	C472.989349,386.064392 468.834198,372.898743 463.981537,359.625214 
	C462.423035,355.362244 460.148712,351.658508 456.023865,349.097961 
	C443.811920,341.517303 430.032776,340.949219 416.309631,339.437653 
	C416.247192,341.749634 417.952454,342.482300 419.099579,343.578033 
	C423.912415,348.175171 428.750214,352.641724 430.818604,359.392426 
	C432.040222,363.379578 435.176178,366.436005 437.446747,369.915527 
	C439.442535,372.973999 441.648499,370.148590 443.713043,370.511078 
	C444.702545,370.684784 445.764130,370.003906 446.017212,368.945435 
	C446.595215,366.528259 444.159790,366.587830 443.021820,365.609894 
	C439.119598,362.256409 434.724213,359.449402 431.584473,355.257568 
	C430.465820,353.764038 428.038147,352.628510 429.583710,350.245026 
	C430.940094,348.153229 433.154358,348.125214 435.404968,348.599213 
	C441.642395,349.912811 445.847595,353.956207 449.459259,358.877502 
	C453.022766,363.733154 454.571503,369.544342 457.198975,374.785461 
	C462.463654,385.287201 467.453796,395.542389 466.587891,407.741882 
	C465.263489,426.401184 458.858154,442.778198 443.122864,453.559998 
	C432.726501,460.683594 422.192535,467.806824 411.264496,474.076691 
	C397.956268,481.712128 383.656158,486.539948 367.878326,481.330353 
	C360.570282,478.917358 353.165771,477.500732 346.456543,472.803711 
	C340.918579,468.926666 335.598358,464.657471 330.250153,460.613312 
	C322.674683,454.884918 315.390900,448.332153 311.114960,439.357544 
	C303.850128,424.109650 303.562042,408.284943 307.414062,392.207550 
	C308.846497,386.228821 311.210052,380.469666 312.579712,374.480164 
	C316.298889,358.216034 323.397552,344.541016 339.397125,337.135162 
	C341.336578,336.237427 342.952362,334.604095 344.919037,333.808075 
	C352.358612,330.796875 359.443604,326.883331 368.029755,327.328186 
	C372.484375,327.558990 377.938354,327.986206 379.812988,321.630981 
	C380.445160,319.487885 382.618225,318.417725 384.671570,317.585266 
	C390.412170,315.258087 396.272247,313.820801 402.561554,313.539551 
	C411.321106,313.147766 420.298859,312.879486 427.918579,307.586945 
	C433.602875,303.638672 440.006500,301.384033 446.372986,298.946960 
	C449.874542,297.606537 453.044525,295.641144 455.631653,292.383331 
	C452.077911,291.202911 449.331879,293.031647 446.423920,293.376862 
	C432.843170,294.988953 419.289917,293.856720 405.702087,293.572205 
	C396.888184,293.387604 388.787689,288.626862 379.887817,290.321014 
	C375.049957,291.241882 369.503326,288.962952 365.572296,290.914581 
	C359.346252,294.005493 353.117615,293.295685 346.837128,294.067139 
	C338.226929,295.124817 329.639648,292.918304 321.032684,294.326172 
	C315.619141,295.211731 309.974792,296.656342 304.692932,295.940155 
	C295.533661,294.698242 291.347076,300.833771 288.938843,306.871033 
	C286.462708,313.078583 282.019714,314.483582 277.058655,315.954742 
	C271.983673,317.459778 266.734375,318.405426 261.531097,319.444183 
	C247.971313,322.151215 234.403564,324.669098 220.459915,322.393738 
	C217.038208,321.835388 213.475632,321.431732 210.048813,321.741791 
	C198.195480,322.814270 186.872330,327.876923 174.558228,325.789062 
	C173.772034,332.968567 176.538666,338.866241 177.611343,345.024353 
	C177.833954,346.302429 179.193314,346.592896 180.435226,346.618591 
	C193.560776,346.890137 206.865387,348.611115 219.767883,346.258881 
	C240.351608,342.506317 260.793640,344.411957 281.318329,345.454742 
	C287.980865,345.793243 295.758087,347.433533 300.796295,343.633087 
	C306.208038,339.550903 312.278168,334.779938 315.021179,327.919861 
	C320.081970,315.263123 330.266144,309.212708 342.501190,305.433929 
	C359.860779,300.072449 377.319183,301.032562 395.642487,304.587769 
M290.594269,438.779816 
	C278.183502,410.073578 275.949341,381.557068 293.143494,353.982635 
	C290.725311,352.304413 288.970947,352.382141 287.399963,352.622070 
	C273.258667,354.781494 258.844025,354.450806 244.785675,357.347168 
	C241.509613,358.022095 238.193680,358.069122 234.840775,357.838806 
	C217.408569,356.641388 199.987335,356.073883 182.548767,358.069000 
	C179.171997,358.455353 177.737869,359.834198 177.554306,362.875275 
	C177.073654,370.838165 176.906052,378.825958 176.208817,386.768280 
	C175.414459,395.816772 176.964905,404.762787 178.198883,413.518280 
	C181.289841,435.449951 177.781311,457.444214 180.026718,479.314697 
	C180.076736,479.802002 179.948013,480.308411 179.896500,480.805267 
	C179.325974,486.306702 180.613266,487.438080 186.314423,488.082367 
	C191.428406,488.660217 196.570816,488.778381 201.691269,489.419250 
	C206.544495,490.026581 211.721252,490.538574 216.481735,488.480103 
	C219.841202,487.027496 223.238144,486.934784 226.761017,487.233124 
	C236.894501,488.091217 247.100296,488.809174 257.192993,487.737488 
	C275.407684,485.803467 293.595734,484.053497 311.945923,484.400208 
	C315.450043,484.466400 319.143677,485.610931 323.530426,483.367157 
	C307.174133,472.330475 299.524017,455.555267 290.594269,438.779816 
M395.710602,398.295197 
	C391.815216,390.602814 384.744629,387.790314 376.920349,386.581909 
	C373.806091,386.100952 371.044525,387.735016 369.956909,391.044861 
	C368.771210,394.653290 367.379974,398.254761 366.758484,401.972961 
	C365.947571,406.824310 368.175812,410.745270 372.213226,413.381104 
	C376.341797,416.076538 382.161804,418.837341 385.577576,415.789673 
	C390.307434,411.569550 395.214203,406.269379 395.710602,398.295197 
M317.254059,386.748322 
	C315.482422,391.517944 314.794281,396.415985 315.486481,401.487701 
	C315.468018,395.506805 316.917542,389.761475 319.946106,384.774414 
	C324.684906,376.971161 329.429413,369.208435 335.335815,362.058746 
	C341.232819,354.920441 346.711273,347.862274 355.597382,344.333740 
	C357.092224,343.740173 358.762085,342.820038 356.967102,340.047791 
	C350.762848,343.453094 343.868530,346.429962 339.569061,351.878296 
	C331.180206,362.508667 321.921814,372.755280 317.254059,386.748322 
M380.738556,437.975250 
	C378.477295,437.434753 376.216003,436.894287 373.954742,436.353790 
	C396.940338,446.085388 417.484589,440.741333 425.048004,407.735138 
	C423.192657,413.672058 420.668518,419.375427 416.409119,423.860840 
	C406.985809,433.784180 397.206726,443.353577 380.738556,437.975250 
M190.954453,311.822327 
	C198.944839,313.341827 206.880005,313.044312 214.864975,311.476135 
	C215.637772,307.045410 214.601944,304.579620 209.867950,305.399017 
	C204.812241,306.274109 199.759689,306.745972 194.602768,306.532715 
	C191.817230,306.417511 189.741699,307.743500 190.954453,311.822327 
M426.256073,390.582916 
	C426.676300,393.317078 427.096527,396.051239 427.517029,398.785339 
	C429.921783,391.941559 429.203430,387.582458 425.010345,384.351715 
	C425.420837,386.256409 425.801819,388.024170 426.256073,390.582916 
M251.030060,307.802765 
	C248.718933,308.545715 246.085800,307.765594 243.727707,309.283051 
	C255.480942,310.277435 257.708130,309.954987 260.429382,306.415833 
	C257.236816,306.868011 254.522812,307.252411 251.030060,307.802765 
M413.960968,458.847137 
	C415.824585,458.651733 417.961243,459.052856 418.944519,456.432037 
	C417.460724,455.164795 416.322571,452.663391 413.906586,455.008026 
	C412.994446,455.893250 410.032928,457.050018 413.960968,458.847137 
z" data-index="0" style="opacity: 1;"></path>
<path fill="#000000" opacity="1.000000" stroke="none" d="
M530.540100,199.724854 
	C530.950256,196.354050 531.357910,193.397232 531.616272,190.427429 
	C531.789307,188.438538 532.261353,186.839783 534.510437,186.601562 
	C536.672668,187.811890 535.634155,189.887115 536.254517,191.448959 
	C536.599548,188.598572 538.153625,185.448608 533.800537,183.921265 
	C532.912964,183.609818 532.789795,182.292572 533.218140,181.239395 
	C533.712280,180.024567 534.639587,179.283951 535.899902,179.383392 
	C538.991455,179.627289 541.548767,180.649551 543.401733,183.528427 
	C547.837769,190.420731 547.891968,198.357208 549.239624,205.997314 
	C549.557190,207.797272 549.931763,209.588165 550.207581,211.394302 
	C550.830566,215.473526 553.053162,217.371704 557.166321,216.246857 
	C562.035400,214.915283 566.435608,216.690323 570.740723,218.314774 
	C574.354248,219.678253 575.991089,222.780945 575.526978,226.740555 
	C575.050842,230.802460 572.700256,233.818146 568.923157,234.653656 
	C564.662842,235.596054 560.199097,236.380585 555.772217,235.742722 
	C552.351929,235.249878 549.240479,235.997543 546.136414,237.071793 
	C546.751343,249.241928 543.224792,260.439545 539.181519,271.512482 
	C538.258423,274.040710 536.990173,276.597534 533.498230,275.898590 
	C530.066101,275.211609 527.597595,273.460205 527.717529,269.560303 
	C527.826965,266.001740 526.819641,262.666199 526.104858,259.246521 
	C525.188904,254.864746 524.675232,250.507156 525.458374,245.906006 
	C526.732422,238.420822 525.426880,236.655319 518.232178,233.953781 
	C514.058899,232.386749 509.493744,231.770798 506.122711,228.376892 
	C504.580963,226.824661 501.180603,226.453812 501.998230,223.472305 
	C502.877106,220.267410 504.796112,217.330200 508.155243,216.077759 
	C510.475250,215.212723 512.956909,214.647079 515.415955,214.313461 
	C523.866333,213.166931 530.521118,210.245651 530.540100,199.724854 
M533.994141,220.516403 
	C529.857300,222.430786 525.720459,224.345154 520.863892,226.592606 
	C528.802734,230.118790 535.540466,233.875793 536.505310,243.571518 
	C541.653320,234.653854 548.604919,228.624100 557.256165,223.253265 
	C540.749573,222.087463 538.115845,209.970337 536.056152,197.385315 
	C534.919617,200.458878 535.117493,203.094467 535.813049,205.942322 
	C536.961548,210.645035 537.107971,215.481277 533.994141,220.516403 
z" data-index="1"></path>
<path fill="#000000" opacity="1.000000" stroke="none" d="
M479.904755,195.953857 
	C478.691833,193.991440 475.109924,192.866226 477.896576,189.815140 
	C479.922760,187.596695 485.345093,188.014908 487.296539,190.733398 
	C489.761566,194.167206 491.088562,198.212738 491.228577,202.379395 
	C491.484009,209.980560 491.593689,217.604752 490.818298,225.226685 
	C488.011780,226.346100 486.849396,224.321259 486.314087,222.563690 
	C484.301086,215.953888 481.166534,209.522034 482.228271,202.300003 
	C482.548370,200.122635 481.556671,198.450821 480.332489,196.503525 
	C480.132233,196.268860 479.984985,196.055618 479.904755,195.953857 
z" data-index="2"></path>
<path fill="#000000" opacity="1.000000" stroke="none" d="
M205.230469,380.927673 
	C200.961731,379.810425 196.850235,381.288635 192.998688,379.551147 
	C191.310684,378.789673 189.242386,378.541504 189.200546,376.259766 
	C189.161911,374.153046 190.216934,372.073853 192.166489,371.402100 
	C199.181961,368.984894 206.136566,365.960754 213.887741,367.477539 
	C220.217361,368.716187 226.439606,366.711548 232.761948,366.806183 
	C241.055893,366.930420 249.058044,369.939545 257.473328,368.854065 
	C260.076324,368.518341 260.972809,371.386505 263.125366,373.509399 
	C256.815887,376.440002 250.815018,378.261230 244.533386,377.931885 
	C237.498245,377.562988 230.596237,377.616791 224.041458,380.329895 
	C217.917694,382.864624 211.867004,383.442169 205.230469,380.927673 
z" data-index="3"></path>
<path fill="#000000" opacity="1.000000" stroke="none" d="
M200.313919,392.799774 
	C205.482162,392.648682 210.234695,394.077728 214.979630,392.042267 
	C216.761826,391.277679 219.076447,391.861786 219.612656,394.421936 
	C220.052032,396.519836 219.428864,397.782562 217.186310,399.042877 
	C210.218674,402.958679 203.243362,400.847534 196.253433,399.819153 
	C194.329269,399.536102 193.072632,398.119568 193.222412,395.893066 
	C193.365753,393.761963 195.031403,393.865021 196.472687,393.587677 
	C197.615845,393.367737 198.748642,393.093994 200.313919,392.799774 
z" data-index="4"></path>
<path fill="#000000" opacity="1.000000" stroke="none" d="
M209.454712,404.341003 
	C213.619934,403.812561 217.424973,402.607361 220.558289,406.010712 
	C221.941895,407.513580 222.019501,408.850861 220.661850,410.335510 
	C216.366196,415.033020 199.416290,413.072662 196.000854,407.255920 
	C199.725647,403.527161 204.673523,405.251251 209.454712,404.341003 
z" data-index="5"></path>
</svg>