<svg version="1.1" id="Layer_1" xmlns="http://www.w3.org/2000/svg" xmlns:xlink="http://www.w3.org/1999/xlink" x="0px" y="0px" width="100%" viewBox="0 0 736 736" enable-background="new 0 0 736 736" xml:space="preserve">
<path fill="#000000" opacity="1.000000" stroke="none" d="
M345.184021,186.248642 
	C350.506348,175.459442 356.072083,165.232712 362.407562,155.445618 
	C364.812805,151.729980 369.189087,151.034821 372.972565,153.188889 
	C375.803284,154.800476 374.024200,156.929825 373.937927,159.226151 
	C379.265076,160.280151 384.609924,161.204483 389.891510,162.406738 
	C408.265259,166.589264 424.065552,176.136444 439.420746,186.518417 
	C447.816895,192.195251 456.197632,197.912537 463.553864,204.977615 
	C465.990570,207.317841 467.911774,210.026016 469.725006,212.800797 
	C473.710846,218.900223 474.145630,224.980896 470.110870,231.496796 
	C463.861115,241.589767 456.482208,250.827988 448.768860,259.738525 
	C432.666199,278.340302 416.249847,296.676819 399.690491,314.874908 
	C387.595612,328.166718 375.117767,341.112213 362.718018,354.123810 
	C346.641449,370.993652 331.884949,389.068817 315.455933,405.625977 
	C311.639221,409.472443 307.044342,412.044769 302.867737,415.274445 
	C300.623047,417.010254 297.855896,416.519897 295.213440,415.549591 
	C291.726501,414.269165 288.721649,412.154022 285.634277,410.209717 
	C274.723694,403.338440 262.151428,401.139435 250.138931,397.351532 
	C245.331665,395.835632 244.362854,393.593262 247.633286,389.819611 
	C257.214111,378.764557 261.848877,365.107971 267.891876,352.223724 
	C285.066071,315.606659 300.235840,278.078217 317.904755,241.683792 
	C326.844330,223.270172 335.973083,204.948410 345.184021,186.248642 
M447.038635,205.479431 
	C442.169861,201.992523 437.359009,198.421127 432.421539,195.034378 
	C416.950684,184.422501 400.703247,175.548752 382.041565,171.712311 
	C372.182953,169.685593 365.056610,172.773087 360.704987,181.976334 
	C352.740662,198.820328 344.812103,215.681396 336.922272,232.560425 
	C327.970520,251.711319 319.070068,270.886200 310.160980,290.057007 
	C297.959290,316.312927 287.551453,343.363251 274.950165,369.446625 
	C271.810059,375.946320 268.045776,382.198395 265.606598,389.664825 
	C270.017761,390.659088 274.585266,393.236847 277.873413,392.103333 
	C284.457703,389.833588 290.948303,386.852966 298.821503,383.743378 
	C292.604523,382.399780 288.145081,384.270081 283.587830,384.352448 
	C280.115723,384.415131 276.546661,384.492279 275.865173,380.021423 
	C275.220825,375.794220 278.202820,374.119843 281.651733,373.176025 
	C289.190826,371.113007 296.790192,369.262482 304.294159,367.081573 
	C311.190674,365.077271 317.994476,362.753937 324.839111,360.571106 
	C316.610748,360.029633 308.697693,360.529663 300.800232,361.210419 
	C297.362183,361.506775 294.749268,360.520203 293.764374,357.106842 
	C292.777985,353.688293 295.115875,351.704681 297.754913,350.474152 
	C302.275116,348.366516 306.919403,346.504120 311.587402,344.739227 
	C318.438110,342.149078 325.355591,339.735443 332.244629,337.246613 
	C327.236755,337.629150 322.410217,337.373322 317.598694,337.183868 
	C313.252808,337.012726 308.097107,337.200226 307.277679,331.602997 
	C306.493591,326.247314 311.368805,324.987854 315.302155,323.634644 
	C325.899567,319.988770 336.533356,316.448578 348.056091,312.561737 
	C343.509277,312.254272 339.892883,312.250000 336.364960,311.689209 
	C333.886902,311.295349 331.389191,310.110718 331.095184,307.123657 
	C330.816376,304.291138 332.673523,302.333649 334.959259,301.201355 
	C337.473114,299.956085 340.217621,299.117767 342.930450,298.342987 
	C353.186249,295.413788 363.469940,292.582367 373.743195,289.714325 
	C366.855286,290.776733 360.011871,288.743561 353.242554,289.873444 
	C350.458679,290.338104 347.601074,289.465210 345.017944,288.185547 
	C341.574554,286.479675 341.079742,283.215485 343.838562,280.527649 
	C346.090210,278.333954 349.084564,277.712830 351.957001,276.888031 
	C371.775085,271.197357 392.166443,267.951813 412.114594,262.808044 
	C417.527863,261.412201 423.050201,260.405182 429.199554,257.601410 
	C427.410553,257.316254 426.661743,257.123627 425.905426,257.087158 
	C407.436737,256.195770 389.020111,256.839630 370.629608,258.760315 
	C364.684662,259.381195 358.689606,259.976532 352.703278,259.210632 
	C350.781433,258.964783 348.452423,258.832336 347.967072,256.337585 
	C347.460175,253.732315 348.778442,251.708893 351.012787,250.567062 
	C353.520660,249.285446 356.147888,248.158768 358.833527,247.316483 
	C374.707794,242.337723 390.594818,237.397583 406.516174,232.571732 
	C418.029449,229.081985 429.011169,224.321777 439.791168,219.058182 
	C442.752625,217.612167 445.274139,217.764053 447.272980,220.539352 
	C449.317810,223.378647 447.586975,225.662430 445.788605,227.636856 
	C444.832886,228.686127 443.313507,229.296875 441.955231,229.892838 
	C430.670563,234.844009 419.276855,239.517059 407.499817,243.198349 
	C402.558929,244.742752 397.635925,246.344406 392.704773,247.920029 
	C397.345856,248.285477 401.783447,247.761734 406.232178,247.637299 
	C416.393524,247.353134 426.517242,248.269821 436.645935,248.922836 
	C439.036194,249.076920 441.360138,249.108124 443.030701,246.995255 
	C448.397461,240.207458 453.817871,233.460342 459.076416,226.589447 
	C461.453430,223.483612 461.378204,220.204010 459.125519,216.865295 
	C456.076813,212.346817 451.694763,209.300659 447.038635,205.479431 
M383.819916,309.074646 
	C377.388062,314.026978 369.725067,316.391724 362.336273,319.350830 
	C356.620728,321.639832 350.359528,322.402710 344.806335,325.169952 
	C351.272919,328.216614 361.347015,320.454315 364.241180,333.149445 
	C377.131317,319.494537 389.778748,306.096741 402.426208,292.698975 
	C392.753510,294.845917 383.701660,297.698914 374.467773,299.935486 
	C384.931732,301.703430 386.004120,302.610443 383.819916,309.074646 
M418.834381,271.283264 
	C407.595093,273.984192 396.355835,276.685150 384.482819,279.538391 
	C393.289825,280.799286 402.005676,277.571503 409.657410,283.251495 
	C411.558350,284.662598 420.381287,273.765015 418.834381,271.283264 
M294.663300,401.916290 
	C296.300415,402.681061 298.149597,403.999146 299.735718,402.517548 
	C303.925476,398.603821 307.878723,394.436981 311.926117,390.370880 
	C311.667725,390.124756 311.409363,389.878601 311.151001,389.632477 
	C304.671692,392.711761 298.192413,395.791046 291.142181,399.141663 
	C292.622589,400.370361 293.362152,400.984161 294.663300,401.916290 
M356.586670,341.348694 
	C357.309967,340.264496 358.033264,339.180298 359.554626,336.899811 
	C351.347137,341.348816 344.298096,344.599030 337.051270,347.425354 
	C352.927124,347.954834 349.212402,349.093109 356.586670,341.348694 
z" data-index="0"></path>
<path fill="#000000" opacity="1.000000" stroke="none" d="
M474.773621,439.213440 
	C459.039368,439.413818 443.740540,438.519623 428.456573,440.488495 
	C433.445648,443.695953 439.297791,443.922089 444.657623,445.688385 
	C450.537292,447.626007 451.631439,449.060486 450.351074,455.330444 
	C461.684814,450.488647 472.176239,444.480927 482.929565,439.014679 
	C487.227631,436.829834 491.451691,434.469971 495.559509,431.945770 
	C505.805115,425.649933 508.303741,418.170044 504.457977,405.726532 
	C501.738953,396.928558 497.664337,388.754333 492.806305,380.960419 
	C491.650146,379.105530 490.309082,377.489288 487.877411,377.102570 
	C484.508453,376.566742 481.585022,375.242706 481.997498,371.107422 
	C482.305939,368.014923 487.484680,365.306213 491.224945,366.070679 
	C496.135040,367.074188 499.682831,370.224121 502.137604,374.244324 
	C508.655914,384.919495 514.523743,395.914215 516.816895,408.453125 
	C519.122192,421.058350 514.576416,431.638885 505.068054,438.909912 
	C490.884064,449.756378 474.212524,456.559235 458.137238,464.238983 
	C431.703125,476.867554 405.745270,490.433533 380.040802,504.484833 
	C375.221558,507.119263 370.485107,509.924713 365.549530,512.319641 
	C362.459930,513.818787 358.829437,514.638245 356.772919,510.785065 
	C354.742493,506.980713 357.204468,504.561218 360.314697,502.679993 
	C363.306122,500.870575 366.229004,498.941895 369.272583,497.226349 
	C371.663483,495.878662 372.285095,494.422272 370.532166,492.047577 
	C365.007385,484.563354 360.869171,476.144073 354.893127,468.832428 
	C352.423126,468.341431 348.981964,471.387817 347.327972,467.806793 
	C345.828247,464.559753 348.704102,462.036682 350.719299,460.082550 
	C361.356323,449.767853 372.548004,440.074646 384.431915,431.198242 
	C400.697968,419.048737 417.105347,407.078827 433.109619,394.592834 
	C440.177216,389.078979 446.674316,382.814453 453.772583,377.283997 
	C459.140167,373.102020 465.146576,370.410065 471.686829,368.802368 
	C473.667175,368.315582 475.812164,368.015961 477.059540,370.159302 
	C478.490112,372.617371 476.816223,374.206116 475.119659,375.673920 
	C473.736053,376.871033 472.509216,378.423523 470.910156,379.169556 
	C458.807007,384.816315 450.972443,395.651917 440.848022,403.689178 
	C440.498657,403.966522 440.340302,404.484467 439.858093,405.275330 
	C442.780121,406.228027 445.586151,406.053894 448.299561,405.757507 
	C464.400696,403.998810 480.594086,405.691193 496.713623,404.355652 
	C501.991180,403.918427 504.901550,407.195099 503.870911,411.392578 
	C503.386627,413.364899 502.283203,414.799255 500.155029,414.844574 
	C481.879669,415.233704 463.603271,415.577118 445.326508,415.895660 
	C444.038940,415.918091 442.746063,415.634033 441.130768,416.426453 
	C444.386597,417.694458 447.604034,419.074127 450.905701,420.208740 
	C459.565063,423.184509 468.277588,426.005859 476.933777,428.990631 
	C479.980835,430.041321 484.128784,430.575531 483.260132,435.202850 
	C482.451691,439.509399 478.649750,439.315704 474.773621,439.213440 
M437.899719,429.234924 
	C441.639282,429.044678 445.378845,428.854462 449.168701,428.661652 
	C449.061646,428.232697 449.063965,427.980682 448.980652,427.948181 
	C448.068085,427.592255 447.147827,427.253693 446.218964,426.942261 
	C439.475403,424.681213 432.311676,423.241974 427.724365,416.937195 
	C426.251526,414.912872 424.774658,416.329041 423.487885,417.340149 
	C409.120117,428.629913 393.588715,438.370605 379.726990,450.341797 
	C374.390472,454.950531 368.771912,459.232666 362.846191,464.015198 
	C367.898712,467.359924 370.566132,471.984650 374.677551,476.372375 
	C374.861603,471.577576 376.811066,469.051910 380.870087,468.333893 
	C382.566376,468.033844 383.324371,467.040100 383.084564,465.121155 
	C382.478241,460.270020 385.343475,458.114502 389.646393,457.467865 
	C393.000031,456.963898 396.395691,456.739624 400.204163,456.346527 
	C395.161102,444.635437 405.684998,446.274384 410.787445,443.563721 
	C408.648621,435.753998 410.823730,432.607574 419.114868,430.833130 
	C425.015961,429.570190 431.050262,430.116486 437.899719,429.234924 
M434.694122,463.005096 
	C438.513184,460.885315 442.806946,459.608765 447.524231,456.005127 
	C439.610443,456.936432 433.219543,454.788727 426.500488,455.543915 
	C429.661591,457.682495 430.203796,460.974426 430.901978,464.345703 
	C432.210541,463.921722 433.137421,463.621399 434.694122,463.005096 
M422.011414,468.875275 
	C419.631897,467.147522 417.259430,468.252197 414.503326,468.421875 
	C416.997864,471.701996 419.300507,470.871063 422.011414,468.875275 
z" data-index="1"></path>
<path fill="#000000" opacity="1.000000" stroke="none" d="
M234.929932,495.806763 
	C234.965836,493.001068 233.652252,491.857117 231.419037,491.281708 
	C222.675812,489.028778 219.954330,485.886108 218.665268,476.765991 
	C211.325745,473.570679 210.916885,471.718994 213.783386,464.114441 
	C218.425827,451.798553 223.818481,439.805634 228.742340,427.615479 
	C230.234451,423.921448 232.628525,421.999878 236.396637,421.385895 
	C240.759476,420.675018 242.673141,422.560059 241.008026,426.530304 
	C239.379227,430.413849 241.582748,431.133911 244.415924,431.981659 
	C253.158630,434.597473 262.298218,436.144470 270.196655,441.099060 
	C273.152252,442.953064 275.958710,445.053925 278.767578,447.130859 
	C284.792450,451.585754 285.781616,455.840546 281.354553,462.038666 
	C276.629974,468.653259 271.337280,474.779938 265.001373,480.100525 
	C258.521149,485.542267 252.844040,491.938507 246.795975,497.897247 
	C242.000137,502.622192 238.317657,502.078308 234.929932,495.806763 
M260.966919,450.639862 
	C264.799347,449.911285 268.111176,451.538513 272.554504,454.178345 
	C271.228577,452.533081 271.003876,451.997498 270.610840,451.804138 
	C260.243011,446.703644 248.926117,444.389893 238.051941,440.772034 
	C236.704529,440.323730 235.853958,441.114807 235.314590,442.305176 
	C232.607361,448.280090 230.334290,454.403259 228.365143,461.117584 
	C239.393356,457.521027 249.793289,454.129364 260.966919,450.639862 
M254.309738,464.067596 
	C255.667160,465.654449 257.024567,467.241302 258.315094,468.749969 
	C262.399170,466.814331 264.025269,463.732239 266.173462,460.608795 
	C261.289124,459.341309 257.749237,461.274323 254.309738,464.067596 
M225.678726,467.943481 
	C224.968643,469.596008 224.258545,471.248535 223.481903,473.055939 
	C225.785233,474.907501 228.101929,476.311859 230.809006,477.291534 
	C231.934982,475.805023 232.905579,474.523651 234.547226,472.356354 
	C230.019226,472.691956 229.237198,468.313904 225.678726,467.943481 
z" data-index="2"></path>
<path fill="#000000" opacity="1.000000" stroke="none" d="
M299.354065,512.408813 
	C296.310913,513.021606 294.400299,511.975525 293.520172,509.415527 
	C292.676453,506.961243 294.112793,505.206451 295.850922,503.815613 
	C301.182709,499.549286 306.604980,495.427094 312.682953,492.202484 
	C315.301666,490.813202 317.655457,488.881866 319.999786,487.032257 
	C321.720245,485.674835 323.279236,483.780060 325.611176,485.599487 
	C327.757629,487.274170 326.378113,489.181488 325.573883,490.990479 
	C325.314331,491.574280 325.185028,492.215942 324.994873,492.835236 
	C332.556274,494.953430 341.207947,508.355072 340.108124,516.034607 
	C339.494598,520.318542 337.138245,523.309448 333.403534,525.394653 
	C324.836090,530.178040 317.027863,535.992432 309.990875,542.840942 
	C307.649139,545.119934 305.268616,545.645203 302.542145,543.230408 
	C296.734100,538.086304 293.350464,531.491089 291.047516,524.279297 
	C290.364319,522.139771 290.684601,519.778137 293.055603,518.668030 
	C295.598022,517.477661 297.544708,518.709839 299.009277,520.840942 
	C300.100220,522.428467 300.554718,524.578186 303.470093,525.332092 
	C304.783386,521.672119 309.027283,519.893860 308.225098,514.417236 
	C307.599091,510.143463 312.412964,508.949280 315.938904,507.997742 
	C319.261566,507.101074 322.704193,506.648773 326.131805,505.993774 
	C323.846802,497.965454 322.023438,497.191925 315.768616,501.319916 
	C310.356079,504.892090 305.051239,508.627411 299.354065,512.408813 
z" data-index="3"></path>
</svg>