<svg version="1.1" id="Layer_1" xmlns="http://www.w3.org/2000/svg" xmlns:xlink="http://www.w3.org/1999/xlink" x="0px" y="0px" width="100%" viewBox="0 0 736 736" enable-background="new 0 0 736 736" xml:space="preserve">
<path fill="#000000" opacity="1.000000" stroke="none" d="
M361.582092,115.228767 
	C361.188080,118.718987 361.989288,121.226570 364.217682,123.680618 
	C366.391510,126.074608 365.861664,129.649292 366.699219,132.654663 
	C369.322449,142.067017 372.013428,151.460968 374.768219,160.835602 
	C375.239502,162.439377 374.726318,163.787323 374.311584,165.203430 
	C373.587189,167.676956 372.780792,170.106384 376.079041,171.476562 
	C376.626648,171.704056 377.355347,172.365005 377.379089,172.855743 
	C377.862244,182.832443 383.664276,191.171417 385.930695,200.720795 
	C388.436768,211.279953 392.167969,221.876648 397.664764,231.566742 
	C399.731903,235.210846 400.580627,238.980560 397.444336,242.700317 
	C395.396667,245.128998 392.986267,247.293823 389.829803,246.493698 
	C386.691101,245.698090 384.588226,242.960129 383.826508,239.777954 
	C379.228546,220.569534 372.397003,201.981659 367.533478,182.914459 
	C364.740662,171.965210 359.659424,161.945404 357.124084,150.886414 
	C355.471527,143.678192 354.554962,136.308914 352.904358,129.102676 
	C351.435974,122.691978 347.674133,117.929016 344.835510,112.633751 
	C341.829498,112.966064 341.168243,115.080475 340.727325,116.920807 
	C337.923401,128.624283 332.518097,139.533920 330.515076,151.512436 
	C329.711639,156.317307 327.822723,161.047363 325.787079,165.519852 
	C319.195892,180.001404 315.331421,195.521454 308.407623,209.895691 
	C304.447632,218.116821 301.043640,226.620605 296.373352,234.480286 
	C293.601013,239.145844 289.740967,239.671997 285.267761,236.803894 
	C283.638824,235.759445 283.075989,234.837387 283.330536,232.807785 
	C283.760651,229.377869 284.938751,226.429047 287.004761,223.695831 
	C295.804993,212.053452 300.883240,198.644150 306.031250,185.134613 
	C309.012268,177.311630 310.423981,168.704300 315.822845,161.852264 
	C316.311920,161.231567 316.619965,160.346970 316.709381,159.550934 
	C317.929596,148.687012 323.922089,139.362762 326.522644,128.934891 
	C329.571991,116.707520 333.255066,104.653717 333.806458,91.898682 
	C334.200836,82.774811 339.522614,78.231667 346.627228,80.076561 
	C348.530273,80.570732 350.035553,81.462601 350.642059,83.415771 
	C353.930725,94.006691 360.007629,103.636497 361.582092,115.228767 
z" data-index="0"></path>
<path fill="#000000" opacity="1.000000" stroke="none" d="
M247.869629,464.779236 
	C245.979706,470.351166 244.266266,475.544739 246.551010,481.508392 
	C252.823853,479.658325 257.850677,475.491058 262.646027,471.079285 
	C270.182800,464.145355 277.723633,457.200317 284.943573,449.942444 
	C290.719147,444.136414 295.544189,437.322968 301.636047,431.907104 
	C312.341309,422.389832 320.045868,410.244049 330.366669,400.439270 
	C333.120026,397.823608 336.587585,396.516205 339.324768,398.700165 
	C341.871857,400.732361 340.833527,404.653442 339.402710,407.395905 
	C337.962097,410.157166 336.103790,413.011688 333.696960,414.885864 
	C329.936096,417.814453 327.435120,421.731964 324.221100,425.055634 
	C311.474670,438.236847 298.918396,451.593079 285.543121,464.174072 
	C278.515076,470.784821 272.852234,478.874023 265.163483,484.824829 
	C259.068207,489.542297 253.699829,495.242157 246.811844,498.896820 
	C243.196793,500.814911 240.824890,504.736603 236.317383,505.225922 
	C235.026428,505.366058 233.863205,505.875916 232.439590,505.571564 
	C223.580231,503.677490 223.375900,501.156250 225.320511,492.391113 
	C226.921570,485.174622 232.569214,479.538696 233.077728,472.148499 
	C233.435226,466.952881 236.142563,462.822601 237.651108,458.167480 
	C241.426483,446.517120 243.941360,434.312683 248.420242,423.095123 
	C252.795471,412.137085 253.480499,400.515259 257.643829,389.727844 
	C257.702972,389.574554 257.702637,389.399323 257.750305,389.240417 
	C259.266510,384.185760 264.385284,380.080902 268.134155,380.910614 
	C271.690308,381.697662 274.083557,386.528839 273.387512,392.092651 
	C272.722656,397.406891 271.280212,402.482330 267.595428,406.635010 
	C267.165192,407.119873 266.502533,407.765594 266.561890,408.263519 
	C267.693542,417.760742 260.819977,424.982178 259.388306,433.836792 
	C257.962219,442.657043 253.678864,450.686127 249.985306,458.798767 
	C249.151917,460.629303 248.274902,462.394348 247.869629,464.779236 
z" data-index="1"></path>
<path fill="#000000" opacity="1.000000" stroke="none" d="
M437.539520,227.475983 
	C447.253296,228.580414 456.550873,226.313080 466.089142,227.357162 
	C475.106506,228.344223 484.210541,229.335541 493.235657,230.308014 
	C500.194763,231.057861 507.071716,231.641266 514.042969,231.554153 
	C527.769714,231.382599 541.442566,232.227524 555.065918,233.862030 
	C556.876770,234.079285 558.584473,234.388840 560.471741,234.078918 
	C565.383240,233.272430 567.985718,236.235825 566.005310,240.892242 
	C563.878052,245.893829 560.931396,250.174377 555.358032,252.698959 
	C549.114136,255.527252 543.569641,259.658417 538.504456,264.631134 
	C533.250244,269.789490 526.844299,273.812317 520.748901,278.054260 
	C518.836121,279.385406 517.031006,280.815033 515.209534,282.243866 
	C505.105072,290.170319 494.962555,298.049011 484.915314,306.047302 
	C479.809692,310.111725 476.052704,315.724243 470.108337,318.875946 
	C468.401611,319.780884 466.834808,320.315796 464.909943,319.978302 
	C460.562317,319.216064 459.122070,316.640228 461.487000,312.953949 
	C465.801117,306.229340 471.791229,300.936279 477.625824,295.635376 
	C484.474854,289.412811 491.851715,283.814453 499.748871,278.870026 
	C507.676636,273.906464 514.251038,267.085510 522.394958,262.252411 
	C526.982422,259.529938 530.492432,255.031082 534.969177,251.807709 
	C538.242249,249.451080 537.030457,246.403351 533.115967,245.296829 
	C523.901550,242.692169 514.387939,244.240524 505.037689,243.126053 
	C495.817230,242.027039 486.712616,240.102448 477.501251,239.299103 
	C469.787231,238.626358 461.938904,239.095688 454.176056,239.527344 
	C449.348541,239.795792 444.611023,239.232819 439.871094,239.148209 
	C431.691742,239.002228 423.613464,237.233032 415.405518,237.942871 
	C412.080322,238.230438 408.783997,237.521790 405.745453,236.163284 
	C403.873657,235.326431 402.247192,233.711334 402.730164,231.492172 
	C403.208893,229.292572 404.225494,227.585495 406.932251,226.551682 
	C414.805939,223.544449 422.343719,225.312653 429.888367,227.285568 
	C432.427002,227.949432 434.762085,227.946457 437.539520,227.475983 
z" data-index="2"></path>
<path fill="#000000" opacity="1.000000" stroke="none" d="
M430.345306,437.680359 
	C423.606781,434.455383 416.690948,433.138367 409.795502,431.840088 
	C408.297028,431.558014 406.906036,431.309296 405.616333,430.505127 
	C399.390533,426.623199 392.546265,424.376678 385.481232,422.553436 
	C381.844574,421.614990 379.769531,418.017395 376.092743,416.541412 
	C370.837952,414.432007 366.352692,410.660522 360.868988,408.660431 
	C354.169312,406.216858 351.747986,400.944733 354.526917,396.466492 
	C356.722198,392.928741 359.682861,391.731934 363.410736,393.865204 
	C367.883453,396.424683 372.062286,399.538818 376.656677,401.836212 
	C387.641327,407.329010 398.013885,414.055817 410.213074,417.108856 
	C415.873749,418.525543 421.031921,421.904663 426.472687,424.268036 
	C428.593811,425.189484 430.838379,426.284637 433.073730,426.401550 
	C440.492096,426.789581 446.653229,430.307587 453.036560,433.501831 
	C459.244598,436.608337 466.110657,436.869598 473.000458,437.487610 
	C475.713898,431.139435 473.175720,424.947327 472.062714,419.294250 
	C469.932892,408.476746 468.583618,397.551239 466.465973,386.756775 
	C465.850128,383.617859 463.573669,380.838867 462.649811,377.719696 
	C460.057068,368.966095 459.854889,359.986450 461.830658,351.131317 
	C462.463135,348.296692 460.770020,343.669739 465.523956,342.913361 
	C470.341400,342.146912 468.164490,347.453400 470.271057,349.188354 
	C473.033813,351.463715 473.215210,354.546936 473.118622,357.807404 
	C472.950104,363.497437 476.156006,368.516846 476.812988,373.905396 
	C478.521027,387.915009 480.344452,401.857727 485.354034,415.127106 
	C486.850708,419.091583 484.868439,422.666901 485.198547,426.449677 
	C485.885529,434.322449 489.172363,441.768738 488.426331,449.940521 
	C488.070770,453.835083 487.801514,457.982758 484.294800,459.358337 
	C480.664673,460.782288 475.830933,459.742432 473.249512,456.705994 
	C468.505981,451.126373 462.095001,450.671265 455.842651,449.312744 
	C454.722168,449.069275 453.343384,449.182892 452.514740,448.559204 
	C445.905243,443.584320 437.606171,442.122528 430.345306,437.680359 
z" data-index="3"></path>
<path fill="#000000" opacity="1.000000" stroke="none" d="
M240.204193,273.318085 
	C231.241791,275.828156 222.835999,278.805237 214.280853,281.314484 
	C205.360336,283.930939 197.141525,288.944611 188.624496,292.928558 
	C186.513962,293.915802 184.332474,294.467407 182.031769,294.959961 
	C174.356567,296.603119 167.844391,300.691071 161.189941,305.196136 
	C166.524780,312.388123 174.512115,312.754425 181.261353,315.419708 
	C186.884293,317.640289 193.124954,319.031342 198.803757,319.863251 
	C208.300903,321.254517 217.423035,324.302216 226.968781,325.257538 
	C235.023804,326.063660 243.020950,327.446442 251.045166,328.563507 
	C254.017090,328.977203 256.427338,330.384399 255.985443,333.606140 
	C255.603867,336.388184 253.212769,337.599854 250.363922,337.332367 
	C245.091675,336.837463 238.952972,337.766724 234.804443,335.329468 
	C230.754944,332.950439 226.907288,332.205322 222.709244,331.068970 
	C219.330292,330.154358 216.491058,331.765045 213.420273,331.288513 
	C203.485901,329.746826 193.104187,330.144257 184.101791,324.542328 
	C182.804779,323.735260 181.303726,322.864563 179.882080,323.657166 
	C173.857666,327.015808 168.253235,323.905579 163.248825,321.742462 
	C153.270020,317.429199 143.525665,312.343018 135.596252,304.588287 
	C134.300186,303.320740 131.994934,302.392609 132.783798,299.812195 
	C133.664749,296.930634 135.328552,294.999664 138.460419,294.218842 
	C148.109573,291.813141 157.928299,289.837585 167.283066,286.559082 
	C181.684265,281.511993 195.951416,276.056152 210.608826,271.800751 
	C222.048218,268.479584 233.721283,265.510986 244.161423,259.888153 
	C254.479446,254.331116 266.273346,251.864899 275.642761,244.426010 
	C276.858185,243.460999 278.690796,243.137634 280.297485,242.825623 
	C285.918121,241.734100 288.227051,244.208603 287.187866,249.806778 
	C286.364685,254.241196 285.182526,257.821228 279.927277,259.213440 
	C266.445221,262.785034 253.716675,268.587616 240.204193,273.318085 
z" data-index="4"></path>
<path fill="#000000" opacity="1.000000" stroke="none" d="
M303.698730,273.798859 
	C304.489410,272.906769 305.133636,272.347839 305.592468,271.664429 
	C312.742035,261.015930 319.116852,261.952271 328.872406,267.912018 
	C337.471405,273.165192 342.545319,281.099915 345.344055,290.579742 
	C346.518860,294.559143 347.255432,298.666260 348.367523,302.666321 
	C349.517120,306.801270 348.999176,310.476654 346.262390,313.887054 
	C344.776520,315.738647 343.827545,318.082428 344.221100,320.401794 
	C344.990326,324.935608 343.083740,328.458374 340.766113,331.994904 
	C334.733337,341.200378 326.833771,347.756287 315.802094,350.069702 
	C311.554352,350.960510 305.328949,348.528809 303.183044,344.826752 
	C301.130890,341.286469 299.180389,337.769165 296.488098,334.561890 
	C293.115112,330.543732 292.312744,325.152008 291.166351,320.126160 
	C290.329834,316.458710 290.211365,312.673798 288.962585,309.025452 
	C286.970764,303.206177 288.739502,300.295532 295.459595,297.699432 
	C292.840454,288.133057 299.210602,281.474976 303.698730,273.798859 
M300.673279,300.249054 
	C300.061218,301.965363 299.100769,303.665924 299.623199,305.547333 
	C302.362885,315.413483 305.588074,325.134308 309.671814,334.515167 
	C311.684662,339.138885 315.812897,339.857269 319.982513,337.020050 
	C322.038239,335.621277 323.946747,333.917511 326.165649,332.866455 
	C330.266602,330.923981 332.572632,327.685242 333.734436,323.526215 
	C336.403748,313.970520 337.474518,304.663055 333.560272,294.843506 
	C330.807709,287.938232 327.302795,282.647980 320.624878,279.300690 
	C317.393250,277.680847 314.768616,278.096924 313.499023,281.087799 
	C310.515503,288.116425 305.437439,293.611938 300.673279,300.249054 
z" data-index="5"></path>
<path fill="#000000" opacity="1.000000" stroke="none" d="
M321.595642,592.392090 
	C322.908783,601.243652 319.443207,606.697571 311.661469,608.559021 
	C307.102203,609.649658 302.872894,611.337830 299.182343,614.369446 
	C297.670013,615.611816 295.751587,616.389099 293.958069,617.253906 
	C290.258575,619.037659 286.657135,618.314941 283.838104,615.710938 
	C282.029663,614.040405 284.178162,606.896179 286.601898,604.876587 
	C290.970642,601.236206 295.997131,598.753174 301.112671,596.359924 
	C306.248657,593.956970 307.955261,587.476929 306.047455,582.221680 
	C303.947021,576.435730 304.430756,570.110596 304.685822,564.093506 
	C305.222015,551.445923 301.556610,539.543152 299.324646,527.374451 
	C299.027954,525.756836 298.796021,524.086365 298.853241,522.451538 
	C299.166443,513.505859 297.498596,504.709351 296.911346,495.832733 
	C296.620483,491.436676 297.587494,487.218689 298.291809,483.002686 
	C298.820496,479.838196 301.662903,478.418182 304.801086,478.979523 
	C307.606659,479.481354 310.690613,480.530060 310.372742,484.218811 
	C309.672852,492.341949 312.728241,500.070770 311.722260,508.417175 
	C309.920624,523.365234 313.252747,538.086548 315.679016,552.878662 
	C316.975922,560.785522 318.631592,568.765686 319.294098,576.889282 
	C319.693634,581.788208 321.259979,586.840454 321.595642,592.392090 
z" data-index="6"></path>
<path fill="#000000" opacity="1.000000" stroke="none" d="
M383.066406,482.122070 
	C381.814575,489.507141 380.552582,496.471893 379.379303,503.451538 
	C379.220673,504.395416 379.131622,505.726105 379.648071,506.348755 
	C383.635468,511.156006 381.881836,517.619812 384.531525,522.786255 
	C384.813629,523.336243 384.963440,524.200745 384.735046,524.729553 
	C379.964050,535.776794 387.242584,545.771667 388.108215,556.323853 
	C388.786896,564.597717 391.447296,573.407349 393.923187,581.804565 
	C395.502686,587.161499 398.214813,588.410706 403.138184,585.398499 
	C408.318085,582.229431 414.146790,582.715149 419.746552,582.022339 
	C421.750824,581.774231 424.490662,582.042358 425.052246,584.686157 
	C425.636749,587.437744 424.030212,589.535461 421.545166,590.683960 
	C416.604034,592.967590 411.536621,594.984253 406.639435,597.354980 
	C402.219818,599.494629 397.397522,600.011902 392.730988,600.944824 
	C388.255157,601.839600 384.813293,599.976196 382.988586,595.228210 
	C379.718842,586.720459 379.453949,577.662903 377.626709,568.898376 
	C376.544769,563.708801 375.856659,558.408081 374.375061,553.337463 
	C371.879517,544.796936 371.454926,536.048157 370.920410,527.288574 
	C370.459778,519.739319 368.827972,512.311707 368.918518,504.692230 
	C369.006409,497.296051 368.786194,489.935120 370.692444,482.663635 
	C371.794220,478.460785 375.307373,478.876312 378.189911,478.125854 
	C381.053833,477.380280 382.533752,479.029419 383.066406,482.122070 
z" data-index="7"></path>
<path fill="#000000" opacity="1.000000" stroke="none" d="
M403.974731,336.257477 
	C398.955414,337.713531 394.342255,336.976715 389.793396,336.249359 
	C386.761383,335.764557 383.452911,335.572021 381.651306,332.242340 
	C380.903015,330.859344 379.411621,330.453186 377.770966,330.470581 
	C370.832275,330.544128 366.673431,326.929474 366.827179,320.246918 
	C367.066711,309.834900 367.164581,299.459290 369.450043,289.106384 
	C370.887512,282.594696 375.871918,279.777985 379.539520,275.519928 
	C380.082184,274.889893 381.469025,274.513458 382.320312,274.695953 
	C390.919006,276.539612 400.541656,275.858582 406.541046,284.314178 
	C407.299957,285.383850 408.256378,286.521362 409.390839,287.082214 
	C415.898560,290.299652 416.335907,296.143524 416.270172,302.282654 
	C416.248749,304.283112 416.228668,306.345917 417.720093,307.941833 
	C419.120422,309.440216 418.912506,311.032288 418.832306,312.965942 
	C418.653748,317.273102 417.833191,321.509186 417.630035,325.757507 
	C417.367981,331.237213 414.711243,333.967102 409.782318,335.142181 
	C408.006775,335.565491 406.202606,335.868622 403.974731,336.257477 
M381.574066,290.204773 
	C380.412170,292.545166 378.460541,294.803101 378.680237,297.422760 
	C379.227417,303.948029 378.303864,310.304626 377.135376,316.637299 
	C375.938507,323.123474 378.060059,324.875305 384.445465,323.898560 
	C389.698639,323.095032 395.087036,320.727386 400.617798,324.273346 
	C402.909668,325.742737 405.869354,324.220367 406.816376,321.053284 
	C408.482544,315.481018 410.477814,309.976288 405.987305,304.546417 
	C404.594421,302.862183 404.056213,300.404449 403.624390,298.053467 
	C402.226990,290.446045 388.684448,283.828888 381.574066,290.204773 
z" data-index="8"></path>
<path fill="#000000" opacity="1.000000" stroke="none" d="
M326.578735,312.668610 
	C322.769287,315.620697 318.987366,315.375946 316.513855,312.126190 
	C315.319946,310.557587 314.340790,308.624817 315.352173,306.605103 
	C316.776764,303.760193 319.509491,303.515381 322.226440,303.856201 
	C324.311493,304.117767 326.710999,304.321350 327.185577,307.087952 
	C327.487152,308.846161 328.091980,310.689484 326.578735,312.668610 
z" data-index="9"></path>
<path fill="#000000" opacity="1.000000" stroke="none" d="
M390.327515,306.267517 
	C394.707184,307.288879 399.276489,307.936462 398.229095,313.889740 
	C397.804779,316.301361 396.342987,318.242798 393.977570,319.020844 
	C391.615906,319.797699 389.701996,318.754028 388.550049,316.592743 
	C387.380829,314.398956 384.637360,312.549316 386.878571,309.504272 
	C387.765259,308.299591 388.440521,306.922760 390.327515,306.267517 
z" data-index="10"></path>
</svg>