<svg version="1.1" id="Layer_1" xmlns="http://www.w3.org/2000/svg" xmlns:xlink="http://www.w3.org/1999/xlink" x="0px" y="0px" width="100%" viewBox="0 0 736 736" enable-background="new 0 0 736 736" xml:space="preserve">
<path fill="#000000" opacity="1.000000" stroke="none" d="
M426.165680,394.014435 
	C422.500702,395.191681 419.142944,394.905975 415.824951,394.890686 
	C412.693604,394.876251 411.478546,396.125763 411.334351,399.350037 
	C410.847198,410.241760 410.734131,410.436859 399.650635,410.274811 
	C395.182251,410.209473 393.925629,411.776062 393.966583,416.057953 
	C394.068146,426.680206 393.906189,426.847473 383.683746,427.485229 
	C379.372223,427.754211 378.080414,429.438477 378.169586,433.689362 
	C378.401276,444.727600 378.971069,443.242188 368.623535,443.392914 
	C368.456940,443.395325 368.290314,443.394135 368.123688,443.393280 
	C357.759094,443.340149 358.622223,444.140778 358.877869,433.906097 
	C358.985413,429.600830 357.747314,428.046051 353.303070,428.015167 
	C342.100739,427.937378 342.102051,427.745117 342.049011,416.864105 
	C342.017365,410.380371 341.912903,410.278412 335.284637,410.266235 
	C324.874786,410.247101 324.714111,410.247345 324.699951,399.647858 
	C324.694366,395.471161 323.169067,393.811432 319.097565,394.260040 
	C317.945557,394.386993 316.758301,394.180206 315.602478,394.289001 
	C312.024689,394.625977 310.621368,393.229187 310.553833,389.473541 
	C310.336578,377.393677 310.203644,377.419250 298.131409,376.880280 
	C295.717438,376.772461 292.738495,377.187927 292.730865,373.382233 
	C292.700073,358.074921 292.718109,342.767548 292.718109,327.397003 
	C296.608429,325.992004 300.286530,326.775787 303.879578,326.691956 
	C310.651886,326.534027 310.653900,326.626343 310.671417,319.656464 
	C310.676849,317.490509 310.783051,315.319122 310.665619,313.159882 
	C310.501892,310.148651 311.964020,308.904846 314.819366,308.905518 
	C328.814758,308.908905 342.810120,308.909119 356.805511,308.894073 
	C359.437408,308.891235 360.862091,309.945984 360.726257,312.784485 
	C360.623077,314.940521 360.808472,317.108948 360.750488,319.268768 
	C360.549530,326.755432 360.530762,326.802002 367.723267,326.752533 
	C379.230530,326.673401 377.563385,327.802948 377.644592,316.973663 
	C377.705139,308.901306 377.651459,308.881714 385.886078,308.871674 
	C397.882416,308.857025 409.880402,308.985321 421.874298,308.814056 
	C425.933990,308.756073 427.407227,310.128265 427.423401,314.286621 
	C427.470459,326.374298 427.620209,326.485596 439.984375,326.837891 
	C443.807159,326.946777 445.328827,328.300903 445.290161,332.176788 
	C445.157257,345.504669 445.140717,358.835846 445.296326,372.163239 
	C445.342560,376.122192 443.797089,377.293488 439.977936,377.331390 
	C427.765808,377.452515 427.768799,377.578979 427.324158,389.954590 
	C427.276794,391.273560 427.443665,392.640320 426.165680,394.014435 
M382.659546,382.964996 
	C379.471619,383.139496 378.069397,385.466309 376.978851,387.937714 
	C374.684753,393.136627 371.251678,397.123932 366.204926,399.939087 
	C362.398926,402.062134 360.940979,405.861755 361.179718,410.153687 
	C361.375275,413.668671 363.024963,416.807404 365.968628,418.455231 
	C369.210663,420.269958 370.638153,416.470856 372.956909,415.279083 
	C376.222229,413.600861 375.592621,408.201691 380.040771,408.321716 
	C385.755585,408.475952 387.737823,404.762024 389.234924,400.235962 
	C390.607239,396.087067 392.080475,392.145325 397.301666,391.124756 
	C399.739685,390.648224 401.512604,388.451294 402.897125,386.343231 
	C405.105682,382.980408 404.132263,376.989349 401.008423,375.025970 
	C397.018188,372.518097 394.500671,374.830109 392.327118,377.989258 
	C390.191833,381.092773 387.121185,382.549469 382.659546,382.964996 
M326.631195,338.544952 
	C326.684692,327.892670 326.686981,328.026825 316.621979,328.197693 
	C313.114227,328.257263 311.923981,329.581940 312.002533,332.935730 
	C312.138611,338.745667 312.015747,344.561462 312.018921,350.374786 
	C312.024414,360.456543 312.701965,361.053101 322.768707,359.923401 
	C322.933624,359.904877 323.099701,359.894348 323.265564,359.887421 
	C325.485138,359.794678 326.422791,358.816437 326.389740,356.426300 
	C326.311890,350.789703 326.525269,345.149078 326.631195,338.544952 
z" data-index="0"></path>
<path fill="#000000" opacity="1.000000" stroke="none" d="
M188.095581,427.338318 
	C183.257095,427.925690 181.820786,426.000519 181.827957,421.666412 
	C181.847992,409.571442 181.691254,409.464752 169.927795,409.668152 
	C165.772598,409.739990 163.531372,408.504974 164.073532,404.009796 
	C164.172577,403.188599 164.094482,402.346008 164.098099,401.513306 
	C164.130920,393.947723 164.130920,393.947723 156.678833,393.887390 
	C150.377380,393.836334 150.214737,393.666138 150.517838,387.440216 
	C151.058823,376.328033 151.058823,376.328064 139.650986,376.285065 
	C132.696869,376.258850 132.675201,376.258850 132.667557,369.514557 
	C132.653198,356.857208 132.800308,344.197662 132.593414,331.543732 
	C132.524231,327.312500 133.719467,325.637360 138.216980,325.658051 
	C150.231430,325.713318 150.375229,325.532471 150.585678,313.395599 
	C150.651810,309.581451 152.134857,308.569519 155.654282,308.602600 
	C169.143143,308.729462 182.634857,308.748108 196.123230,308.599823 
	C199.709656,308.560364 200.999298,309.880188 200.456787,313.312897 
	C200.328110,314.127167 200.407074,314.975281 200.401733,315.807861 
	C200.330490,326.907990 203.231339,329.070160 214.400223,326.379791 
	C216.467575,325.881775 217.662155,324.914398 217.641052,322.678864 
	C217.612778,319.681549 217.860947,316.665314 217.605072,313.690338 
	C217.256775,309.640747 219.045837,308.554169 222.841614,308.600983 
	C235.996506,308.763214 249.156403,308.783417 262.310486,308.591187 
	C266.326172,308.532501 267.394470,310.060059 267.419128,313.861572 
	C267.499084,326.203033 267.623322,326.323608 280.310150,326.606415 
	C284.031708,326.689362 285.277985,328.102234 285.251892,331.661316 
	C285.154144,344.983978 285.143341,358.308594 285.267975,371.630859 
	C285.302979,375.373077 283.724182,376.461945 280.167389,376.520874 
	C276.101501,376.588257 271.000092,374.656494 268.219757,377.692474 
	C265.692200,380.452423 267.395569,385.367096 267.409851,389.311798 
	C267.423126,392.968750 266.075897,394.255951 262.435333,394.339783 
	C251.804688,394.584595 251.685425,394.703064 251.405426,405.525391 
	C251.315872,408.986877 250.056976,410.168335 246.673615,410.239410 
	C242.748581,410.321899 237.990128,408.519073 235.097260,411.275604 
	C232.328827,413.913513 234.151474,418.585083 234.039032,422.344788 
	C233.921677,426.269104 232.185242,427.377563 228.440018,427.370575 
	C218.398148,427.351868 218.204468,427.499268 218.312485,437.310944 
	C218.362503,441.852875 216.863770,443.904022 212.255493,443.262726 
	C212.092148,443.239960 211.922821,443.259521 211.756271,443.260651 
	C199.518097,443.343872 199.432724,443.348511 198.785172,431.385223 
	C198.622940,428.387878 197.518311,427.141602 194.563660,427.310364 
	C192.571503,427.424164 190.567871,427.336426 188.095581,427.338318 
M228.773941,400.222626 
	C231.620956,397.918671 231.270203,393.130524 236.019424,392.041046 
	C242.274765,390.606079 245.607254,385.928894 246.735733,379.701202 
	C247.159485,377.362671 247.427628,374.940887 245.133636,373.355652 
	C242.954620,371.849884 239.927612,370.989166 238.107468,372.693237 
	C231.716949,378.676361 223.845490,381.752319 216.286789,385.689331 
	C211.741455,388.056763 207.845749,390.563568 202.569702,390.008972 
	C200.434891,389.784576 198.236450,389.801971 196.100418,390.026886 
	C191.377182,390.524261 190.084213,393.038116 192.469696,397.177429 
	C195.186905,401.892426 198.399918,406.343506 200.839783,411.190063 
	C203.122589,415.724609 206.566086,416.615265 211.269882,414.386353 
	C214.891464,412.670288 215.867142,408.296997 219.765762,407.232880 
	C223.467209,406.222626 226.228256,403.933319 228.773941,400.222626 
M164.672653,359.171783 
	C166.311279,358.021759 166.001114,356.258057 166.057602,354.638184 
	C166.254074,349.002899 166.447433,343.367065 166.575195,337.729919 
	C166.806152,327.539001 166.066360,326.924927 156.051422,327.385529 
	C153.080078,327.522217 151.874512,328.616241 151.927734,331.568756 
	C152.029404,337.208954 151.996399,342.852509 151.950928,348.494141 
	C151.853165,360.622101 149.554718,359.824615 164.672653,359.171783 
z" data-index="1"></path>
<path fill="#000000" opacity="1.000000" stroke="none" d="
M580.894775,309.663666 
	C585.899597,309.042694 587.467163,310.901001 587.432373,315.524994 
	C587.342590,327.483612 587.541321,327.704346 599.362793,327.555420 
	C604.150879,327.495117 605.351746,329.377808 605.291870,333.730194 
	C605.115417,346.557190 605.067322,359.390930 605.303040,372.215912 
	C605.386292,376.745758 603.519775,377.972900 599.387024,377.887329 
	C587.534363,377.641876 587.355042,377.732391 587.431702,389.616455 
	C587.459839,393.983704 586.066711,395.424561 581.693420,395.385803 
	C571.516052,395.295685 571.348022,395.490509 571.427307,405.643219 
	C571.458923,409.700806 570.216858,411.183136 566.037415,411.215454 
	C554.437195,411.305145 554.295105,411.464905 553.997192,422.951874 
	C553.889832,427.090759 552.306946,428.376190 548.283813,428.360443 
	C538.380981,428.321594 538.219116,428.482391 538.278870,438.412628 
	C538.304077,442.615356 537.090088,444.820068 532.601196,444.256470 
	C532.437317,444.235901 532.268372,444.254700 532.101746,444.256805 
	C519.552979,444.415192 519.478943,444.419403 518.784607,432.196289 
	C518.628784,429.453094 517.700073,428.152832 514.923157,428.355560 
	C514.426453,428.391815 513.924011,428.348602 513.424194,428.341370 
	C501.962219,428.175476 501.962219,428.175476 501.906189,416.971710 
	C501.873932,410.514648 501.858978,410.504517 495.594025,410.832184 
	C494.596466,410.884369 493.595306,410.898560 492.596283,410.888123 
	C484.239197,410.800781 484.233398,410.791809 484.522827,402.575348 
	C484.780334,395.264893 484.614807,395.088409 477.338348,394.915833 
	C470.576416,394.755463 469.838409,393.977386 470.199951,387.327057 
	C470.281311,385.831146 470.486908,384.339813 470.520233,382.843842 
	C470.603638,379.098633 469.332489,377.177399 464.979736,377.189514 
	C452.656799,377.223846 452.656067,377.034790 452.660095,364.782288 
	C452.663727,353.785675 452.776978,342.787415 452.611267,331.793365 
	C452.555206,328.074768 453.989532,326.662018 457.587738,326.816498 
	C460.746582,326.952148 463.917969,326.765656 467.082764,326.804443 
	C469.603516,326.835388 470.713348,325.684296 470.660889,323.164459 
	C470.595001,320.000488 470.743042,316.831726 470.660370,313.668640 
	C470.591705,311.041229 471.474731,309.631256 474.358643,309.648163 
	C489.019043,309.734009 503.679962,309.730682 518.340637,309.784271 
	C518.802002,309.785980 519.262329,310.067841 520.384827,310.436279 
	C520.384827,314.549866 520.484863,318.830811 520.352112,323.104553 
	C520.251892,326.332001 521.701050,327.673126 524.823975,327.594971 
	C539.621033,327.224579 537.486816,329.162933 537.646240,315.835266 
	C537.667847,314.029968 537.649170,312.224182 537.649170,309.663727 
	C552.213989,309.663727 566.311401,309.663727 580.894775,309.663666 
M552.525696,399.944061 
	C551.639648,395.213562 553.402344,393.039246 558.372559,393.639832 
	C560.343506,393.877991 562.390442,393.488831 564.360779,393.729248 
	C568.876770,394.280396 570.038574,392.252563 569.983887,387.986450 
	C569.835938,376.453583 569.997192,376.348907 581.432861,375.919922 
	C584.655579,375.799011 585.837463,374.663086 585.811279,371.464386 
	C585.706543,358.636719 585.704895,345.807343 585.797241,332.979553 
	C585.822937,329.405853 584.160400,328.394836 580.866577,328.468689 
	C570.377991,328.703827 559.885925,328.831512 549.394653,328.880798 
	C538.841858,328.930389 538.842651,328.867523 538.354919,339.363373 
	C538.262695,341.347382 538.510986,343.968536 535.779114,343.968933 
	C530.795044,343.969666 531.322876,347.172363 531.321411,350.407837 
	C531.310913,373.232422 531.252014,396.057007 531.214050,418.881592 
	C531.211243,420.547302 531.231750,422.213623 531.277100,423.878693 
	C531.317810,425.373749 531.881592,426.485321 533.570862,426.570038 
	C535.353882,426.659454 536.494568,425.853363 536.562500,424.010590 
	C536.660645,421.348389 536.643188,418.681549 536.654541,416.016602 
	C536.684570,408.945648 536.680237,408.945648 543.915588,408.870270 
	C552.206238,408.783905 552.206238,408.783875 552.525696,399.944061 
M486.616455,338.575226 
	C486.546021,327.239136 487.988525,328.640259 476.598083,328.374603 
	C473.023987,328.291229 471.538208,329.153320 471.794769,333.096802 
	C472.170776,338.875427 472.000366,344.699677 471.860413,350.499603 
	C471.590973,361.667267 471.525940,361.579102 482.631348,360.785004 
	C485.629883,360.570618 486.688812,359.364716 486.627686,356.464355 
	C486.508972,350.829315 486.598541,345.189880 486.616455,338.575226 
z" data-index="2"></path>
</svg>